<svg width="32" height="32" viewBox="0 0 32 32" fill="none" xmlns="http://www.w3.org/2000/svg">
<g clip-path="url(#clip0_1046_41824)">
<path d="M16 32C24.8366 32 32 24.8366 32 16C32 7.16344 24.8366 0 16 0C7.16344 0 0 7.16344 0 16C0 24.8366 7.16344 32 16 32Z" fill="#F0F5F8"/>
<path d="M22.75 15.625C22.7526 16.6149 22.5213 17.5914 22.075 18.475C21.5458 19.5338 20.7323 20.4244 19.7256 21.047C18.7189 21.6696 17.5587 21.9996 16.375 22C15.3851 22.0026 14.4086 21.7713 13.525 21.325L9.25 22.75L10.675 18.475C10.2287 17.5914 9.99742 16.6149 10 15.625C10.0005 14.4413 10.3305 13.2812 10.953 12.2744C11.5756 11.2677 12.4662 10.4542 13.525 9.92502C14.4086 9.47872 15.3851 9.24744 16.375 9.25002H16.75C18.3133 9.33627 19.7898 9.99609 20.8969 11.1032C22.0039 12.2102 22.6638 13.6868 22.75 15.25V15.625Z" stroke="#625DF5" stroke-width="2" stroke-linecap="round" stroke-linejoin="round"/>
</g>
<defs>
<clipPath id="clip0_1046_41824">
<rect width="32" height="32" fill="white"/>
</clipPath>
</defs>
</svg>
