<svg width="92" height="120" viewBox="0 0 92 120" fill="none" xmlns="http://www.w3.org/2000/svg">
<path d="M49.1193 97.369C49.1211 97.3311 49.1255 97.295 49.1343 97.2597C48.1107 96.0923 47.0297 95.111 45.8287 94.4999C45.4135 94.2909 45.2477 93.7857 45.4558 93.3704C45.6648 92.9552 46.17 92.7894 46.5852 92.9975C49.3466 94.4002 51.3887 97.2596 53.4316 100.12C54.1749 101.163 54.9208 102.205 55.6939 103.164C55.7336 103.213 55.7715 103.252 55.8121 103.284C55.9197 103.372 56.044 103.41 56.1745 103.4C56.3455 103.387 56.5386 103.301 56.7352 103.143C56.8402 103.057 56.946 102.954 57.043 102.834C57.8224 101.877 58.3135 100.765 58.541 99.5556C58.9624 97.3223 58.4986 94.7628 57.3172 92.2518C56.1145 89.694 54.1739 87.2023 51.6628 85.1542C49.0079 82.9887 45.7238 81.3285 42.0144 80.6266C41.2517 80.4837 39.9689 80.3594 38.4497 80.2686C36.897 80.1778 35.1274 80.1258 33.4248 80.1293C31.7223 80.1249 29.9509 80.1778 28.4 80.2686C26.8808 80.3568 25.598 80.4811 24.8353 80.6266C21.1234 81.3284 17.839 82.9878 15.1869 85.1542C12.6776 87.2015 10.7351 89.6958 9.53254 92.2518C8.35106 94.7628 7.88728 97.3224 8.30874 99.5556C8.53621 100.763 9.02732 101.877 9.80674 102.834C9.90549 102.956 10.0086 103.059 10.1145 103.143C10.3102 103.301 10.5024 103.387 10.6752 103.4C10.8057 103.41 10.93 103.372 11.0376 103.284C11.0755 103.253 11.1152 103.213 11.1557 103.164C11.929 102.206 12.6749 101.163 13.4181 100.12C15.4592 97.2587 17.5031 94.4003 20.2644 92.9975C20.6797 92.7885 21.1849 92.9552 21.3939 93.3704C21.6029 93.7857 21.4362 94.2909 21.021 94.4999C19.8201 95.1091 18.7374 96.0905 17.7154 97.2579C17.7215 97.294 17.7277 97.3293 17.7304 97.3672C18.1536 103.824 19.9954 108.585 22.5692 111.874C25.5608 115.693 29.5488 117.522 33.4247 117.697C37.3034 117.522 41.2913 115.693 44.2802 111.874C46.8547 108.585 48.6956 103.822 49.1191 97.3672L49.1193 97.369ZM20.9637 53.2103V54.8952H19.2788V53.2103H20.9637ZM47.7966 53.2103H46.244V54.8952H47.7966V53.2103ZM41.1884 53.2103V54.8952H39.5035V53.2103H41.1884ZM34.447 53.2103V54.8952H32.7621V53.2103H34.447ZM27.7056 53.2103V54.8952H26.0207V53.2103H27.7056ZM47.0764 16.9515C47.4405 17.6763 47.683 18.1189 47.8726 18.4663C47.9695 18.6453 48.0577 18.8031 48.0833 18.8516C48.3972 19.4432 48.6458 20.0022 48.7684 20.6026C48.9015 21.2471 48.8821 21.8978 48.6441 22.6191C48.6229 22.6825 48.5956 22.7416 48.5621 22.7963L46.4239 26.7693C46.2494 27.092 46.1268 27.3195 46.3754 27.5214C46.58 27.6898 46.7775 27.5637 47.0561 27.3882C47.0834 27.3715 47.1108 27.3547 47.0561 27.3882L47.1681 27.3186C48.2296 26.6529 49.441 25.7765 50.6542 24.8958C52.7465 23.381 54.8485 21.8583 56.6409 21.1291C57.1672 20.9139 57.7192 20.7543 58.3849 20.6591C59.0109 20.5683 59.7356 20.5366 60.635 20.5727V20.5709H83.6036C83.7535 20.5709 83.6583 20.5727 83.6036 20.5727H83.6477C85.7144 20.556 87.1806 19.3066 88.1374 17.575C89.1593 15.7252 89.616 13.3474 89.616 11.2505V11.1262V11.0018C89.616 8.90604 89.1611 6.52729 88.1374 4.67733C87.1808 2.94744 85.7146 1.69632 83.6477 1.67962H83.6036C83.6583 1.68138 83.7535 1.68138 83.6036 1.68138H51.9043C51.7544 1.68138 51.8497 1.67962 51.9043 1.67962H51.8602C49.7936 1.69637 48.3274 2.94574 47.3706 4.67733C46.3487 6.52713 45.892 8.90496 45.892 11.0018C45.892 11.3201 45.8875 10.9031 45.8902 11.12V11.1323C45.884 11.977 45.9537 12.8763 46.1388 13.8479C46.324 14.8169 46.6238 15.8467 47.0743 16.9506L47.0764 16.9515ZM46.3984 19.2687C46.2088 18.9231 45.9663 18.4805 45.5749 17.6993C45.5581 17.6702 45.5431 17.6402 45.5308 17.6085C45.0273 16.3785 44.6923 15.2367 44.4877 14.1636C44.2832 13.0915 44.2056 12.0819 44.2135 11.1262C44.2118 10.8379 44.2091 11.2338 44.2091 11.0019C44.2091 8.66099 44.7293 5.97973 45.8985 3.86885C47.1311 1.63816 49.0673 0.0265169 51.8499 0.00349407H51.909V0.00173067C51.7934 0.00173067 51.8587 0.00173067 51.909 0.00173067H83.6083C83.6585 0.00173067 83.7238 0.00173067 83.6083 0.00173067V0.00349407H83.6673C86.45 0.0264176 88.3861 1.63816 89.6188 3.86885C90.7861 5.98228 91.3081 8.66167 91.3081 11.0019C91.3081 11.2355 91.3063 10.8396 91.3037 11.1262C91.3054 11.4127 91.3081 11.0186 91.3081 11.2505C91.3081 13.5914 90.7879 16.2727 89.6188 18.3835C88.3862 20.6142 86.45 22.2259 83.6673 22.2489H83.6083V22.2507C83.6585 22.2507 83.7238 22.2507 83.6083 22.2507H60.6396V22.2489H60.6061C59.8055 22.2154 59.1671 22.2427 58.6258 22.3203C58.1135 22.3944 57.6859 22.5187 57.275 22.6845C55.6721 23.3378 53.6539 24.7996 51.6419 26.2553C50.441 27.1255 49.2446 27.9913 48.056 28.7372C47.8055 28.895 48.1529 28.6781 47.951 28.8069C47.0746 29.3606 46.4557 29.7547 45.3095 28.8157C43.9905 27.733 44.3828 27.0082 44.9427 25.9697L47.0641 22.0303C47.184 21.6344 47.1928 21.2799 47.1231 20.9369C47.0411 20.5322 46.8472 20.1046 46.5968 19.6347C46.4954 19.4451 46.4513 19.3631 46.401 19.2705L46.3984 19.2687ZM47.0535 27.3874C46.9961 27.4236 47.0261 27.4068 47.0535 27.3874V27.3874ZM83.6034 20.5745C83.5505 20.5745 83.5699 20.5745 83.6034 20.5745V20.5745ZM83.6034 22.2532C83.5364 22.2532 83.5655 22.255 83.6034 22.255V22.2532ZM89.6182 11.128C89.62 11.128 89.62 11.2858 89.62 11.1342V11.1218C89.6217 10.9702 89.62 11.128 89.6182 11.128ZM83.6034 1.68139C83.5505 1.68139 83.5699 1.68139 83.6034 1.68139V1.68139ZM83.6034 0C83.5655 0 83.5364 0.00176361 83.6034 0.00176361V0ZM51.9041 1.68139C51.9376 1.68139 51.957 1.68139 51.9041 1.68139V1.68139ZM51.9041 0.00264078C51.9711 0.00264078 51.942 0.000877391 51.9041 0.000877391V0.00264078ZM8.98224 32.0744C8.10407 32.0744 7.30965 32.4306 6.7348 33.0055C6.15993 33.5803 5.80373 34.3747 5.80373 35.2529C5.80373 36.1311 6.15993 36.9255 6.7348 37.5003C7.30967 38.0752 8.10407 38.4314 8.98224 38.4314C9.8604 38.4314 10.6548 38.0752 11.2297 37.5003C11.8045 36.9255 12.1607 36.1311 12.1607 35.2529C12.1607 34.3747 11.8045 33.5803 11.2297 33.0055C10.6548 32.4306 9.8604 32.0744 8.98224 32.0744ZM5.5446 31.8134C6.42541 30.9326 7.64041 30.3895 8.98224 30.3895C10.3242 30.3895 11.54 30.9326 12.4199 31.8134C13.3007 32.6942 13.8438 33.9092 13.8438 35.251C13.8438 36.593 13.3007 37.8088 12.4199 38.6887C11.733 39.3755 10.8416 39.8578 9.84785 40.0368V47.7578C11.1475 44.6967 13.0227 41.9411 15.3399 39.6242C19.9874 34.9767 26.4105 32.1016 33.5011 32.1016C40.5944 32.1016 47.0158 34.9767 51.6623 39.6242C54.0217 41.9836 55.9245 44.8023 57.2257 47.9307V40.0352C56.2294 39.8562 55.338 39.3739 54.6537 38.6871C53.7729 37.8063 53.2298 36.5913 53.2298 35.2495C53.2298 33.9075 53.7729 32.6917 54.6537 31.8118C55.5345 30.931 56.7495 30.3879 58.0913 30.3879C59.4333 30.3879 60.6491 30.931 61.529 31.8118C62.4098 32.6926 62.9529 33.9076 62.9529 35.2495C62.9529 36.5914 62.4098 37.8073 61.529 38.6871C60.8316 39.3845 59.9234 39.8712 58.9102 40.0414V50.3069C59.1315 50.2143 59.3652 50.1508 59.6094 50.1129C60.2249 50.0177 60.909 50.1005 61.588 50.3254C62.8373 50.7406 64.1051 51.6656 64.8908 52.8762C65.8492 54.353 66.3465 56.2786 66.3782 58.1999C66.41 60.1193 65.9735 62.0573 65.0636 63.557C64.3239 64.7764 63.0498 65.7119 61.7608 66.1457C61.0484 66.3855 60.3157 66.4808 59.6473 66.3926C59.0046 66.3079 58.4209 66.062 57.9597 65.6255C57.3002 67.6799 56.3903 69.6222 55.2652 71.4146C53.0195 74.9933 49.9142 77.9816 46.2402 80.0834C48.6526 81.0083 50.8303 82.3079 52.7137 83.8438C55.4205 86.0516 57.5207 88.7549 58.8274 91.5348C60.157 94.3598 60.671 97.2756 60.1817 99.858C59.9013 101.337 59.2991 102.704 58.3345 103.886C58.1573 104.103 57.9704 104.29 57.7764 104.446C57.3091 104.824 56.7951 105.036 56.2828 105.072C55.7309 105.112 55.1974 104.953 54.7425 104.581C54.6093 104.474 54.4877 104.349 54.3757 104.21C53.5769 103.22 52.8151 102.154 52.0542 101.086C51.5869 100.433 51.1214 99.7778 50.647 99.1456C50.0069 105.129 48.1342 109.66 45.5976 112.9C42.2665 117.154 37.8007 119.184 33.4505 119.37C33.4214 119.372 33.3915 119.37 33.3641 119.37C29.02 119.179 24.5622 117.147 21.2381 112.9C18.7015 109.66 16.8288 105.129 16.1886 99.1456C15.7143 99.7778 15.247 100.433 14.7814 101.086C14.0188 102.154 13.2588 103.22 12.46 104.21C12.348 104.349 12.2237 104.474 12.0932 104.581C11.6382 104.953 11.1048 105.115 10.5529 105.072C10.0406 105.035 9.5248 104.822 9.05927 104.446C8.86529 104.29 8.67838 104.103 8.50115 103.886C7.53658 102.704 6.93349 101.337 6.65399 99.858C6.16552 97.2729 6.68132 94.3571 8.00828 91.5348C9.31672 88.7558 11.4152 86.0533 14.122 83.8438C16.0308 82.2868 18.2431 80.9721 20.695 80.0455C16.9937 77.9118 13.8732 74.8823 11.6337 71.2542C10.5633 69.5207 9.69307 67.6497 9.05469 65.6756C8.6015 66.0803 8.04161 66.3096 7.42442 66.3898C6.75698 66.478 6.02517 66.3836 5.31099 66.1429C4.02196 65.7065 2.74958 64.7719 2.00811 63.5542C1.09821 62.0544 0.661772 60.1166 0.693508 58.1971C0.725248 56.2759 1.22254 54.3484 2.18092 52.8734C2.96652 51.6619 4.23528 50.7371 5.4838 50.3226C6.16446 50.0969 6.84691 50.0149 7.46232 50.1101C7.70654 50.148 7.9402 50.2115 8.16151 50.3041V40.0386C7.14844 39.8658 6.2403 39.3791 5.54278 38.6843C4.66197 37.8035 4.11883 36.5885 4.11883 35.2467C4.11883 33.9049 4.66195 32.6889 5.54278 31.8091L5.5446 31.8134ZM8.19224 53.3815C8.19841 52.8023 8.0829 52.4002 7.88452 52.1445C7.72669 51.9426 7.48864 51.8262 7.2065 51.7821C6.8503 51.7275 6.43767 51.7804 6.01179 51.9214C5.09747 52.2248 4.16815 52.9054 3.58897 53.7942C2.80513 55.0012 2.39869 56.6086 2.37136 58.229C2.34402 59.8513 2.70022 61.4667 3.4435 62.6914C3.97253 63.5634 4.89918 64.2379 5.84262 64.5579C6.32314 64.7202 6.79486 64.7854 7.20573 64.7325C7.54518 64.6884 7.83791 64.5579 8.03805 64.326C8.23819 64.0924 8.37134 63.7379 8.39867 63.2433C8.01778 61.4843 7.81764 59.6601 7.81764 57.7873C7.81764 56.2849 7.94637 54.8124 8.19501 53.3807L8.19224 53.3815ZM58.6349 63.1013H58.6728C58.6816 63.6726 58.8183 64.072 59.0369 64.3277C59.2371 64.5596 59.5298 64.6901 59.8692 64.7342C60.2784 64.7871 60.75 64.7218 61.2324 64.5596C62.1758 64.2395 63.1033 63.565 63.6315 62.693C64.3747 61.4692 64.7292 59.8531 64.7036 58.2307C64.6763 56.6083 64.2698 55.0036 63.486 53.7958C62.9085 52.9071 61.9774 52.2264 61.0632 51.9231C60.6373 51.782 60.2229 51.7291 59.8685 51.7838C59.5863 51.8279 59.3483 51.9443 59.1905 52.1462C58.9903 52.4027 58.8722 52.8101 58.8827 53.3973L58.8131 53.3991C59.06 54.8257 59.1878 56.2918 59.1878 57.789C59.1878 59.6088 58.9982 61.3871 58.6359 63.1021L58.6349 63.1013ZM60.3392 33.0045C59.7643 32.4296 58.9699 32.0734 58.0917 32.0734C57.2136 32.0734 56.4192 32.4296 55.8443 33.0045C55.2694 33.5794 54.9132 34.3738 54.9132 35.2519C54.9132 36.1301 55.2694 36.9245 55.8443 37.4994C56.4192 38.0742 57.2136 38.4305 58.0917 38.4305C58.9699 38.4305 59.7643 38.0743 60.3392 37.4994C60.9141 36.9245 61.2703 36.1301 61.2703 35.2519C61.2703 34.3738 60.9141 33.5794 60.3392 33.0045ZM37.8021 65.5751H29.0071V65.5795C28.4173 65.5795 28.0381 65.6888 27.8292 65.866C27.7172 65.9586 27.6581 66.0873 27.6413 66.2346C27.6158 66.4453 27.6643 66.694 27.7701 66.9549C28.0372 67.6056 28.6297 68.2678 29.403 68.6804C30.4901 69.2597 31.9396 69.548 33.4058 69.548C34.872 69.548 36.3216 69.2597 37.4086 68.6804C38.1819 68.2695 38.7735 67.6056 39.0415 66.9549C39.1491 66.694 39.1949 66.4453 39.1703 66.2346C39.1535 66.0873 39.0927 65.9604 38.9825 65.866C38.7735 65.6888 38.3943 65.5795 37.8045 65.5795V65.5751H37.8021ZM29.0071 63.8963H37.8021V63.8919C38.8213 63.8919 39.5628 64.1556 40.0671 64.5805C40.5282 64.9703 40.7751 65.4737 40.8421 66.0344C40.9012 66.5317 40.8104 67.0669 40.5935 67.5915C40.1914 68.5755 39.3186 69.5612 38.198 70.1599C36.856 70.8741 35.1226 71.2321 33.4051 71.2321C31.6885 71.2321 29.9542 70.8741 28.6123 70.1599C27.489 69.5613 26.6197 68.5755 26.2168 67.5915C26.0017 67.0669 25.9091 66.5317 25.9682 66.0344C26.0352 65.4737 26.2821 64.9685 26.7432 64.5805C27.2467 64.1547 27.9881 63.8919 29.0082 63.8919V63.8963H29.0071ZM22.7523 79.2564C22.8026 79.282 22.8511 79.3137 22.8952 79.3472C23.4286 79.2062 23.97 79.0818 24.5219 78.9787C25.3542 78.8209 26.7129 78.6877 28.3035 78.5952C29.8562 78.5043 31.6592 78.4523 33.4209 78.4558C35.1843 78.4514 36.9856 78.5043 38.5383 78.5952C40.1289 78.6877 41.4875 78.8209 42.3199 78.9787C42.8974 79.088 43.4661 79.2185 44.0242 79.3684C48.0668 77.3943 51.4737 74.3162 53.8498 70.5267C56.1652 66.8376 57.5028 62.4708 57.5028 57.7879C57.5028 51.1602 54.8172 45.1603 50.4729 40.8168C46.1288 36.4728 40.1289 33.787 33.5019 33.787C26.8742 33.787 20.8743 36.4725 16.5309 40.8168C12.1868 45.1609 9.50102 51.1609 9.50102 57.7879C9.50102 62.4098 10.8033 66.7221 13.0612 70.3793C15.3978 74.1652 18.7578 77.2512 22.752 79.2571L22.7523 79.2564ZM33.4623 38.8378C38.6952 38.8378 43.4334 40.9591 46.8604 44.389C50.2902 47.8187 52.4116 52.5562 52.4116 57.7872C52.4116 63.0201 50.2903 67.7583 46.8604 71.1853C43.4307 74.6151 38.6932 76.7365 33.4623 76.7365C28.2293 76.7365 23.4911 74.6152 20.0641 71.1853C16.6344 67.7556 14.5129 63.0181 14.5129 57.7872C14.5129 52.5542 16.6342 47.816 20.0641 44.389C23.4938 40.9592 28.2313 38.8378 33.4623 38.8378ZM45.6702 45.5792C42.5464 42.4553 38.2296 40.5236 33.4623 40.5236C28.6949 40.5236 24.3782 42.4554 21.2543 45.5792C18.1304 48.7029 16.1987 53.0198 16.1987 57.7872C16.1987 62.5545 18.1305 66.8712 21.2543 69.9951C24.378 73.119 28.6949 75.0507 33.4623 75.0507C38.2296 75.0507 42.5464 73.1189 45.6702 69.9951C48.7941 66.8712 50.7258 62.5545 50.7258 57.7872C50.7258 53.0198 48.794 48.703 45.6702 45.5792Z" fill="#29696E"/>
</svg>
